# xmcd CD database file
#
# Track frame offsets:
#	150
#	15106
#	27864
#	40308
#	52668
#	71325
#	90742
#	104900
#	116475
#	129578
#	141378
#	154979
#	171064
#	188741
#
# Disc length: 2757 seconds
#
# Revision: 0
# Processed by: cddbd v1.5.1PL2 Copyright (c) Steve Scherf et al.
# Submitted via: CDex 1.51
#
DISCID=b50ac30e
DTITLE=Noel Burns - Special To Me
DYEAR=1900
DGENRE=Country
TTITLE0=My Shoe Keep Walking Back To You
TTITLE1=When The Girl In Your Arms
TTITLE2=Sea Of A Heartbreak
TTITLE3=Walk Right Back
TTITLE4=Songs Of Home
TTITLE5=Dance The Night Away
TTITLE6=Can't Help Falling In Love
TTITLE7=Blue Berry Hill
TTITLE8=You'll Always Be Special
TTITLE9=Its A Sin To Tell A Lie
TTITLE10=Hush Not A Word To Mary
TTITLE11=Danny Boy
TTITLE12=Elvis Medley - Love Me Tender - Wooden Heart - Its Now Or Never
TTITLE13=How Great Thou Art
EXTD=
EXTT0=
EXTT1=
EXTT2=
EXTT3=
EXTT4=
EXTT5=
EXTT6=
EXTT7=
EXTT8=
EXTT9=
EXTT10=
EXTT11=
EXTT12=
EXTT13=
PLAYORDER=
